<?xml version="1.0" standalone="no"?>
<!DOCTYPE svg PUBLIC "-//W3C//DTD SVG 20010904//EN"
 "http://www.w3.org/TR/2001/REC-SVG-20010904/DTD/svg10.dtd">
<svg version="1.0" xmlns="http://www.w3.org/2000/svg"
 width="63.000000pt" height="63.000000pt" viewBox="0 0 63.000000 63.000000"
 preserveAspectRatio="xMidYMid meet">

<g transform="translate(0.000000,63.000000) scale(0.100000,-0.100000)"
fill="#000000" stroke="none">
<path d="M213 609 c-66 -25 -145 -100 -175 -164 -35 -76 -33 -190 5 -267 97
-198 366 -238 511 -78 43 48 66 96 66 139 l0 30 -44 -29 c-24 -16 -69 -36
-101 -45 -68 -17 -117 -9 -176 29 -114 76 -129 217 -39 360 33 51 28 54 -47
25z m-29 -94 c-22 -43 -25 -60 -21 -115 6 -100 56 -177 142 -223 58 -31 174
-31 233 1 l43 22 -18 -31 c-48 -84 -151 -134 -256 -127 -151 10 -257 126 -257
279 0 78 46 168 109 214 25 18 47 33 48 31 1 -1 -9 -24 -23 -51z"/>
</g>
</svg>
